<mxfile host="Electron" agent="Mozilla/5.0 (Macintosh; Intel Mac OS X 10_15_7) AppleWebKit/537.36 (KHTML, like Gecko) draw.io/24.7.8 Chrome/128.0.6613.36 Electron/32.0.1 Safari/537.36" version="24.7.8">
  <diagram name="Page-1" id="sAYKX_L7jDC3IMTKif4X">
    <mxGraphModel dx="1114" dy="878" grid="1" gridSize="10" guides="1" tooltips="1" connect="1" arrows="1" fold="1" page="1" pageScale="1" pageWidth="850" pageHeight="1100" math="0" shadow="0">
      <root>
        <mxCell id="0" />
        <mxCell id="1" parent="0" />
        <mxCell id="Whk9nSMBZKlfXFXf8Rof-48" value="" style="rounded=0;whiteSpace=wrap;html=1;fillColor=#bac8d3;strokeColor=#23445d;" parent="1" vertex="1">
          <mxGeometry x="80" y="420" width="520" height="430" as="geometry" />
        </mxCell>
        <mxCell id="Whk9nSMBZKlfXFXf8Rof-28" style="edgeStyle=orthogonalEdgeStyle;rounded=0;orthogonalLoop=1;jettySize=auto;html=1;exitX=1;exitY=0.5;exitDx=0;exitDy=0;entryX=0;entryY=0.5;entryDx=0;entryDy=0;" parent="1" source="Whk9nSMBZKlfXFXf8Rof-1" target="Whk9nSMBZKlfXFXf8Rof-26" edge="1">
          <mxGeometry relative="1" as="geometry" />
        </mxCell>
        <mxCell id="Whk9nSMBZKlfXFXf8Rof-1" value="Reality" style="rounded=0;whiteSpace=wrap;html=1;fillColor=#f5f5f5;strokeColor=#666666;fontColor=#333333;" parent="1" vertex="1">
          <mxGeometry x="120" y="280" width="120" height="40" as="geometry" />
        </mxCell>
        <mxCell id="Whk9nSMBZKlfXFXf8Rof-32" style="edgeStyle=orthogonalEdgeStyle;rounded=0;orthogonalLoop=1;jettySize=auto;html=1;entryX=0.5;entryY=0;entryDx=0;entryDy=0;" parent="1" source="Whk9nSMBZKlfXFXf8Rof-10" target="Whk9nSMBZKlfXFXf8Rof-14" edge="1">
          <mxGeometry relative="1" as="geometry" />
        </mxCell>
        <mxCell id="Whk9nSMBZKlfXFXf8Rof-10" value="Gap / Problem" style="rounded=1;whiteSpace=wrap;html=1;fillColor=#f5f5f5;strokeColor=#666666;fontColor=#333333;" parent="1" vertex="1">
          <mxGeometry x="277" y="360" width="125" height="40" as="geometry" />
        </mxCell>
        <mxCell id="Whk9nSMBZKlfXFXf8Rof-14" value="Required Information" style="rounded=0;whiteSpace=wrap;html=1;fillColor=#f5f5f5;strokeColor=#666666;fontColor=#333333;" parent="1" vertex="1">
          <mxGeometry x="120" y="440" width="440" height="40" as="geometry" />
        </mxCell>
        <mxCell id="Whk9nSMBZKlfXFXf8Rof-49" style="edgeStyle=orthogonalEdgeStyle;rounded=0;orthogonalLoop=1;jettySize=auto;html=1;entryX=0.5;entryY=0;entryDx=0;entryDy=0;" parent="1" source="Whk9nSMBZKlfXFXf8Rof-15" target="Whk9nSMBZKlfXFXf8Rof-18" edge="1">
          <mxGeometry relative="1" as="geometry" />
        </mxCell>
        <mxCell id="Whk9nSMBZKlfXFXf8Rof-15" value="Actual Knowledge" style="rounded=0;whiteSpace=wrap;html=1;fillColor=#f5f5f5;strokeColor=#666666;fontColor=#333333;" parent="1" vertex="1">
          <mxGeometry x="120" y="480" width="240" height="40" as="geometry" />
        </mxCell>
        <mxCell id="Whk9nSMBZKlfXFXf8Rof-33" style="edgeStyle=orthogonalEdgeStyle;rounded=0;orthogonalLoop=1;jettySize=auto;html=1;entryX=0.5;entryY=0;entryDx=0;entryDy=0;" parent="1" source="Whk9nSMBZKlfXFXf8Rof-16" target="Whk9nSMBZKlfXFXf8Rof-31" edge="1">
          <mxGeometry relative="1" as="geometry" />
        </mxCell>
        <mxCell id="Whk9nSMBZKlfXFXf8Rof-16" value="Unknowns" style="rounded=0;whiteSpace=wrap;html=1;fillColor=#fff2cc;strokeColor=#d6b656;" parent="1" vertex="1">
          <mxGeometry x="360" y="480" width="200" height="40" as="geometry" />
        </mxCell>
        <mxCell id="Whk9nSMBZKlfXFXf8Rof-40" style="edgeStyle=orthogonalEdgeStyle;rounded=0;orthogonalLoop=1;jettySize=auto;html=1;entryX=0.5;entryY=0;entryDx=0;entryDy=0;" parent="1" source="Whk9nSMBZKlfXFXf8Rof-20" target="Whk9nSMBZKlfXFXf8Rof-23" edge="1">
          <mxGeometry relative="1" as="geometry" />
        </mxCell>
        <mxCell id="Whk9nSMBZKlfXFXf8Rof-20" value="Decision Making Process" style="shape=process;whiteSpace=wrap;html=1;backgroundOutline=1;fillColor=#fad9d5;strokeColor=#ae4132;" parent="1" vertex="1">
          <mxGeometry x="120" y="720" width="440" height="40" as="geometry" />
        </mxCell>
        <mxCell id="Whk9nSMBZKlfXFXf8Rof-23" value="Decision" style="ellipse;whiteSpace=wrap;html=1;fillColor=#ffe6cc;strokeColor=#d79b00;" parent="1" vertex="1">
          <mxGeometry x="280" y="800" width="120" height="40" as="geometry" />
        </mxCell>
        <mxCell id="Whk9nSMBZKlfXFXf8Rof-25" style="edgeStyle=orthogonalEdgeStyle;rounded=0;orthogonalLoop=1;jettySize=auto;html=1;entryX=0;entryY=0.5;entryDx=0;entryDy=0;exitX=0;exitY=0.5;exitDx=0;exitDy=0;" parent="1" source="Whk9nSMBZKlfXFXf8Rof-42" target="Whk9nSMBZKlfXFXf8Rof-1" edge="1">
          <mxGeometry relative="1" as="geometry">
            <mxPoint x="287" y="900" as="sourcePoint" />
            <Array as="points">
              <mxPoint x="40" y="900" />
              <mxPoint x="40" y="300" />
            </Array>
          </mxGeometry>
        </mxCell>
        <mxCell id="Whk9nSMBZKlfXFXf8Rof-30" style="edgeStyle=orthogonalEdgeStyle;rounded=0;orthogonalLoop=1;jettySize=auto;html=1;entryX=0.5;entryY=0;entryDx=0;entryDy=0;" parent="1" source="Whk9nSMBZKlfXFXf8Rof-26" target="Whk9nSMBZKlfXFXf8Rof-10" edge="1">
          <mxGeometry relative="1" as="geometry" />
        </mxCell>
        <mxCell id="Whk9nSMBZKlfXFXf8Rof-26" value="" style="shape=orEllipse;perimeter=ellipsePerimeter;whiteSpace=wrap;html=1;backgroundOutline=1;fillColor=#fad9d5;strokeColor=#ae4132;" parent="1" vertex="1">
          <mxGeometry x="320" y="280" width="40" height="40" as="geometry" />
        </mxCell>
        <mxCell id="Whk9nSMBZKlfXFXf8Rof-29" style="edgeStyle=orthogonalEdgeStyle;rounded=0;orthogonalLoop=1;jettySize=auto;html=1;entryX=1;entryY=0.5;entryDx=0;entryDy=0;" parent="1" source="Whk9nSMBZKlfXFXf8Rof-27" target="Whk9nSMBZKlfXFXf8Rof-26" edge="1">
          <mxGeometry relative="1" as="geometry" />
        </mxCell>
        <mxCell id="Whk9nSMBZKlfXFXf8Rof-44" style="edgeStyle=orthogonalEdgeStyle;rounded=0;orthogonalLoop=1;jettySize=auto;html=1;entryX=1;entryY=0.5;entryDx=0;entryDy=0;" parent="1" source="Whk9nSMBZKlfXFXf8Rof-27" target="Whk9nSMBZKlfXFXf8Rof-43" edge="1">
          <mxGeometry relative="1" as="geometry">
            <Array as="points">
              <mxPoint x="640" y="300" />
              <mxPoint x="640" y="900" />
            </Array>
          </mxGeometry>
        </mxCell>
        <mxCell id="Whk9nSMBZKlfXFXf8Rof-27" value="Desired State" style="rounded=0;whiteSpace=wrap;html=1;fillColor=#f5f5f5;strokeColor=#666666;fontColor=#333333;" parent="1" vertex="1">
          <mxGeometry x="440" y="280" width="120" height="40" as="geometry" />
        </mxCell>
        <mxCell id="Whk9nSMBZKlfXFXf8Rof-34" style="edgeStyle=orthogonalEdgeStyle;rounded=0;orthogonalLoop=1;jettySize=auto;html=1;entryX=0.5;entryY=0;entryDx=0;entryDy=0;" parent="1" source="Whk9nSMBZKlfXFXf8Rof-31" target="Whk9nSMBZKlfXFXf8Rof-21" edge="1">
          <mxGeometry relative="1" as="geometry" />
        </mxCell>
        <mxCell id="063Gjlh6JMEUSO8IN6Ev-3" style="edgeStyle=orthogonalEdgeStyle;rounded=0;orthogonalLoop=1;jettySize=auto;html=1;entryX=0;entryY=0.5;entryDx=0;entryDy=0;" edge="1" parent="1" source="Whk9nSMBZKlfXFXf8Rof-31" target="063Gjlh6JMEUSO8IN6Ev-1">
          <mxGeometry relative="1" as="geometry" />
        </mxCell>
        <mxCell id="063Gjlh6JMEUSO8IN6Ev-4" style="edgeStyle=orthogonalEdgeStyle;rounded=0;orthogonalLoop=1;jettySize=auto;html=1;entryX=0;entryY=0.5;entryDx=0;entryDy=0;" edge="1" parent="1" source="Whk9nSMBZKlfXFXf8Rof-31" target="063Gjlh6JMEUSO8IN6Ev-2">
          <mxGeometry relative="1" as="geometry" />
        </mxCell>
        <mxCell id="Whk9nSMBZKlfXFXf8Rof-31" value="Estimation Process" style="shape=process;whiteSpace=wrap;html=1;backgroundOutline=1;fillColor=#f8cecc;strokeColor=#b85450;" parent="1" vertex="1">
          <mxGeometry x="360" y="560" width="200" height="40" as="geometry" />
        </mxCell>
        <mxCell id="Whk9nSMBZKlfXFXf8Rof-39" style="edgeStyle=orthogonalEdgeStyle;rounded=0;orthogonalLoop=1;jettySize=auto;html=1;" parent="1" target="Whk9nSMBZKlfXFXf8Rof-20" edge="1">
          <mxGeometry relative="1" as="geometry">
            <mxPoint x="340" y="680" as="sourcePoint" />
          </mxGeometry>
        </mxCell>
        <mxCell id="Whk9nSMBZKlfXFXf8Rof-41" style="edgeStyle=orthogonalEdgeStyle;rounded=0;orthogonalLoop=1;jettySize=auto;html=1;entryX=0.5;entryY=0;entryDx=0;entryDy=0;" parent="1" source="Whk9nSMBZKlfXFXf8Rof-23" target="Whk9nSMBZKlfXFXf8Rof-42" edge="1">
          <mxGeometry relative="1" as="geometry">
            <mxPoint x="340" y="890" as="targetPoint" />
          </mxGeometry>
        </mxCell>
        <mxCell id="Whk9nSMBZKlfXFXf8Rof-45" style="edgeStyle=orthogonalEdgeStyle;rounded=0;orthogonalLoop=1;jettySize=auto;html=1;entryX=0;entryY=0.5;entryDx=0;entryDy=0;" parent="1" source="Whk9nSMBZKlfXFXf8Rof-42" target="Whk9nSMBZKlfXFXf8Rof-43" edge="1">
          <mxGeometry relative="1" as="geometry" />
        </mxCell>
        <mxCell id="Whk9nSMBZKlfXFXf8Rof-42" value="Effect" style="rounded=0;whiteSpace=wrap;html=1;fillColor=#f5f5f5;strokeColor=#666666;fontColor=#333333;" parent="1" vertex="1">
          <mxGeometry x="280" y="880" width="120" height="40" as="geometry" />
        </mxCell>
        <mxCell id="Whk9nSMBZKlfXFXf8Rof-47" value="" style="edgeStyle=orthogonalEdgeStyle;rounded=0;orthogonalLoop=1;jettySize=auto;html=1;" parent="1" source="Whk9nSMBZKlfXFXf8Rof-43" target="Whk9nSMBZKlfXFXf8Rof-46" edge="1">
          <mxGeometry relative="1" as="geometry" />
        </mxCell>
        <mxCell id="Whk9nSMBZKlfXFXf8Rof-43" value="" style="shape=lineEllipse;line=vertical;perimeter=ellipsePerimeter;whiteSpace=wrap;html=1;backgroundOutline=1;fillColor=#fad9d5;strokeColor=#ae4132;" parent="1" vertex="1">
          <mxGeometry x="440" y="880" width="40" height="40" as="geometry" />
        </mxCell>
        <mxCell id="Whk9nSMBZKlfXFXf8Rof-46" value="Risk" style="whiteSpace=wrap;html=1;fillColor=#e1d5e7;strokeColor=#9673a6;" parent="1" vertex="1">
          <mxGeometry x="400" y="960" width="120" height="30" as="geometry" />
        </mxCell>
        <mxCell id="Whk9nSMBZKlfXFXf8Rof-18" value="Actual Knowledge" style="rounded=0;whiteSpace=wrap;html=1;fillColor=#f5f5f5;strokeColor=#666666;fontColor=#333333;" parent="1" vertex="1">
          <mxGeometry x="120" y="640" width="240" height="40" as="geometry" />
        </mxCell>
        <mxCell id="Whk9nSMBZKlfXFXf8Rof-21" value="Estimates" style="rounded=0;whiteSpace=wrap;html=1;fillColor=#fff2cc;strokeColor=#d6b656;" parent="1" vertex="1">
          <mxGeometry x="360" y="640" width="200" height="40" as="geometry" />
        </mxCell>
        <mxCell id="063Gjlh6JMEUSO8IN6Ev-1" value="System 1: Heuristics" style="rounded=0;whiteSpace=wrap;html=1;fillColor=#e1d5e7;strokeColor=#9673a6;" vertex="1" parent="1">
          <mxGeometry x="680" y="520" width="160" height="40" as="geometry" />
        </mxCell>
        <mxCell id="063Gjlh6JMEUSO8IN6Ev-2" value="System 2: Logic" style="rounded=0;whiteSpace=wrap;html=1;fillColor=#e1d5e7;strokeColor=#9673a6;" vertex="1" parent="1">
          <mxGeometry x="680" y="600" width="160" height="40" as="geometry" />
        </mxCell>
      </root>
    </mxGraphModel>
  </diagram>
</mxfile>
